<mxfile host="65bd71144e">
    <diagram id="EWm0dQu5vNLNrU80fEVc" name="Page-1">
        <mxGraphModel dx="603" dy="585" grid="1" gridSize="10" guides="1" tooltips="1" connect="1" arrows="1" fold="1" page="1" pageScale="1" pageWidth="850" pageHeight="1100" math="0" shadow="0">
            <root>
                <mxCell id="0"/>
                <mxCell id="1" parent="0"/>
                <mxCell id="2" value="" style="group" vertex="1" connectable="0" parent="1">
                    <mxGeometry x="350" y="30" width="95" height="150" as="geometry"/>
                </mxCell>
                <mxCell id="3" value="" style="group" vertex="1" connectable="0" parent="2">
                    <mxGeometry x="-25" y="10" width="120" height="140" as="geometry"/>
                </mxCell>
                <mxCell id="4" value="" style="ellipse;fillColor=strokeColor;fontFamily=Verdana;fontSize=13;fontColor=#1A1A1A;shadow=1;" vertex="1" parent="3">
                    <mxGeometry x="45" width="30" height="30" as="geometry"/>
                </mxCell>
                <mxCell id="5" value="" style="html=1;points=[];perimeter=orthogonalPerimeter;fillColor=strokeColor;fontFamily=Verdana;fontSize=13;fontColor=#1A1A1A;" vertex="1" parent="3">
                    <mxGeometry x="57.5" y="30" width="5" height="50" as="geometry"/>
                </mxCell>
                <mxCell id="6" value="" style="html=1;points=[];perimeter=orthogonalPerimeter;fillColor=strokeColor;fontFamily=Verdana;fontSize=13;fontColor=#1A1A1A;rotation=-90;" vertex="1" parent="3">
                    <mxGeometry x="55" y="17.5" width="5" height="65" as="geometry"/>
                </mxCell>
                <mxCell id="7" value="" style="html=1;points=[];perimeter=orthogonalPerimeter;fillColor=strokeColor;fontFamily=Verdana;fontSize=13;fontColor=#1A1A1A;rotation=-45;" vertex="1" parent="3">
                    <mxGeometry x="70" y="70" width="5" height="40" as="geometry"/>
                </mxCell>
                <mxCell id="8" value="" style="html=1;points=[];perimeter=orthogonalPerimeter;fillColor=strokeColor;fontFamily=Verdana;fontSize=13;fontColor=#1A1A1A;rotation=45;" vertex="1" parent="3">
                    <mxGeometry x="44.99990257669734" y="69.99990257669731" width="5" height="40" as="geometry"/>
                </mxCell>
                <mxCell id="9" value="&lt;font color=&quot;#ffffff&quot;&gt;Visiteur&lt;/font&gt;" style="shape=note2;boundedLbl=1;whiteSpace=wrap;html=1;size=25;verticalAlign=middle;align=center;fontFamily=Verdana;fontSize=13;fontColor=#1A1A1A;fillColor=none;gradientColor=none;shadow=0;strokeColor=none;" vertex="1" parent="3">
                    <mxGeometry y="100" width="120" height="40" as="geometry"/>
                </mxCell>
                <mxCell id="10" value="Accueil&amp;nbsp;" style="shape=ext;double=1;rounded=1;whiteSpace=wrap;html=1;shadow=1;strokeColor=default;fontFamily=Verdana;fontSize=13;fontColor=#FFFFFF;fillColor=none;gradientColor=default;" vertex="1" parent="1">
                    <mxGeometry x="325" y="190" width="120" height="80" as="geometry"/>
                </mxCell>
                <mxCell id="11" value="Navigation" style="shape=ext;double=1;rounded=1;whiteSpace=wrap;html=1;shadow=1;strokeColor=default;fontFamily=Verdana;fontSize=13;fontColor=#FFFFFF;fillColor=none;gradientColor=default;" vertex="1" parent="1">
                    <mxGeometry x="325" y="340" width="120" height="80" as="geometry"/>
                </mxCell>
                <mxCell id="12" value="Vehicule en vente" style="shape=ext;double=1;rounded=1;whiteSpace=wrap;html=1;shadow=1;strokeColor=default;fontFamily=Verdana;fontSize=13;fontColor=#FFFFFF;fillColor=none;gradientColor=default;" vertex="1" parent="1">
                    <mxGeometry x="325" y="490" width="120" height="80" as="geometry"/>
                </mxCell>
                <mxCell id="13" value="filtre kilomètre parcouru" style="shape=ext;double=1;rounded=1;whiteSpace=wrap;html=1;shadow=1;strokeColor=default;fontFamily=Verdana;fontSize=13;fontColor=#FFFFFF;fillColor=none;gradientColor=default;" vertex="1" parent="1">
                    <mxGeometry x="325" y="640" width="120" height="80" as="geometry"/>
                </mxCell>
                <mxCell id="14" value="filtre année de mise en circulation" style="shape=ext;double=1;rounded=1;whiteSpace=wrap;html=1;shadow=1;strokeColor=default;fontFamily=Verdana;fontSize=13;fontColor=#FFFFFF;fillColor=none;gradientColor=default;" vertex="1" parent="1">
                    <mxGeometry x="460" y="640" width="120" height="80" as="geometry"/>
                </mxCell>
                <mxCell id="15" value="Filtre prix" style="shape=ext;double=1;rounded=1;whiteSpace=wrap;html=1;shadow=1;strokeColor=default;fontFamily=Verdana;fontSize=13;fontColor=#FFFFFF;fillColor=none;gradientColor=default;" vertex="1" parent="1">
                    <mxGeometry x="190" y="640" width="120" height="80" as="geometry"/>
                </mxCell>
                <mxCell id="16" value="" style="endArrow=none;html=1;strokeWidth=3;fontFamily=Verdana;fontSize=13;fontColor=#FFFFFF;startArrow=block;startFill=1;entryX=0.5;entryY=1;entryDx=0;entryDy=0;exitX=0.5;exitY=0;exitDx=0;exitDy=0;" edge="1" parent="1" source="13" target="12">
                    <mxGeometry width="50" height="50" relative="1" as="geometry">
                        <mxPoint x="-5" y="280" as="sourcePoint"/>
                        <mxPoint x="95" y="200" as="targetPoint"/>
                        <Array as="points"/>
                    </mxGeometry>
                </mxCell>
                <mxCell id="17" value="" style="endArrow=none;html=1;strokeWidth=3;fontFamily=Verdana;fontSize=13;fontColor=#FFFFFF;startArrow=block;startFill=1;entryX=0.25;entryY=1;entryDx=0;entryDy=0;exitX=0.75;exitY=0;exitDx=0;exitDy=0;" edge="1" parent="1" source="15" target="12">
                    <mxGeometry width="50" height="50" relative="1" as="geometry">
                        <mxPoint x="5" y="290" as="sourcePoint"/>
                        <mxPoint x="105" y="210" as="targetPoint"/>
                        <Array as="points"/>
                    </mxGeometry>
                </mxCell>
                <mxCell id="18" value="" style="endArrow=none;html=1;strokeWidth=3;fontFamily=Verdana;fontSize=13;fontColor=#FFFFFF;startArrow=block;startFill=1;entryX=0.5;entryY=1;entryDx=0;entryDy=0;exitX=0.5;exitY=0;exitDx=0;exitDy=0;" edge="1" parent="1" source="12" target="11">
                    <mxGeometry width="50" height="50" relative="1" as="geometry">
                        <mxPoint x="15" y="300" as="sourcePoint"/>
                        <mxPoint x="115" y="220" as="targetPoint"/>
                        <Array as="points"/>
                    </mxGeometry>
                </mxCell>
                <mxCell id="19" value="" style="endArrow=none;html=1;strokeWidth=3;fontFamily=Verdana;fontSize=13;fontColor=#FFFFFF;startArrow=block;startFill=1;entryX=0.5;entryY=1;entryDx=0;entryDy=0;exitX=0.5;exitY=0;exitDx=0;exitDy=0;" edge="1" parent="1" source="11" target="10">
                    <mxGeometry width="50" height="50" relative="1" as="geometry">
                        <mxPoint x="170" y="460" as="sourcePoint"/>
                        <mxPoint x="270" y="380" as="targetPoint"/>
                        <Array as="points"/>
                    </mxGeometry>
                </mxCell>
                <mxCell id="20" value="" style="endArrow=none;html=1;strokeWidth=3;fontFamily=Verdana;fontSize=13;fontColor=#FFFFFF;startArrow=block;startFill=1;entryX=0.75;entryY=1;entryDx=0;entryDy=0;exitX=0.25;exitY=0;exitDx=0;exitDy=0;" edge="1" parent="1" source="14" target="12">
                    <mxGeometry width="50" height="50" relative="1" as="geometry">
                        <mxPoint x="392.9599999999999" y="651.2800000000002" as="sourcePoint"/>
                        <mxPoint x="395" y="580" as="targetPoint"/>
                        <Array as="points"/>
                    </mxGeometry>
                </mxCell>
                <mxCell id="21" value="Liste des véhicules" style="shape=ext;double=1;rounded=1;whiteSpace=wrap;html=1;shadow=1;strokeColor=default;fontFamily=Verdana;fontSize=13;fontColor=#FFFFFF;fillColor=none;gradientColor=default;" vertex="1" parent="1">
                    <mxGeometry x="325" y="800" width="120" height="80" as="geometry"/>
                </mxCell>
                <mxCell id="22" value="" style="endArrow=none;html=1;strokeWidth=3;fontFamily=Verdana;fontSize=13;fontColor=#FFFFFF;startArrow=block;startFill=1;entryX=0.25;entryY=1;entryDx=0;entryDy=0;exitX=0.75;exitY=0;exitDx=0;exitDy=0;" edge="1" parent="1" source="21" target="14">
                    <mxGeometry width="50" height="50" relative="1" as="geometry">
                        <mxPoint x="540" y="810" as="sourcePoint"/>
                        <mxPoint x="465" y="740" as="targetPoint"/>
                        <Array as="points"/>
                    </mxGeometry>
                </mxCell>
                <mxCell id="23" value="" style="endArrow=none;html=1;strokeWidth=3;fontFamily=Verdana;fontSize=13;fontColor=#FFFFFF;startArrow=block;startFill=1;entryX=0.5;entryY=1;entryDx=0;entryDy=0;exitX=0.5;exitY=0;exitDx=0;exitDy=0;" edge="1" parent="1" source="21" target="13">
                    <mxGeometry width="50" height="50" relative="1" as="geometry">
                        <mxPoint x="370" y="760" as="sourcePoint"/>
                        <mxPoint x="295" y="690" as="targetPoint"/>
                        <Array as="points"/>
                    </mxGeometry>
                </mxCell>
                <mxCell id="24" value="" style="endArrow=none;html=1;strokeWidth=3;fontFamily=Verdana;fontSize=13;fontColor=#FFFFFF;startArrow=block;startFill=1;entryX=0.75;entryY=1;entryDx=0;entryDy=0;exitX=0.25;exitY=0;exitDx=0;exitDy=0;" edge="1" parent="1" source="21" target="15">
                    <mxGeometry width="50" height="50" relative="1" as="geometry">
                        <mxPoint x="255" y="850" as="sourcePoint"/>
                        <mxPoint x="180" y="780" as="targetPoint"/>
                        <Array as="points"/>
                    </mxGeometry>
                </mxCell>
                <mxCell id="25" value="" style="endArrow=none;html=1;strokeWidth=3;fontFamily=Verdana;fontSize=13;fontColor=#FFFFFF;startArrow=block;startFill=1;entryX=0.5;entryY=1;entryDx=0;entryDy=0;exitX=0.5;exitY=0;exitDx=0;exitDy=0;" edge="1" parent="1" source="26" target="21">
                    <mxGeometry width="50" height="50" relative="1" as="geometry">
                        <mxPoint x="385" y="940" as="sourcePoint"/>
                        <mxPoint x="425" y="840" as="targetPoint"/>
                        <Array as="points"/>
                    </mxGeometry>
                </mxCell>
                <mxCell id="26" value="carte d'un véhicule" style="shape=ext;double=1;rounded=1;whiteSpace=wrap;html=1;shadow=1;strokeColor=default;fontFamily=Verdana;fontSize=13;fontColor=#FFFFFF;fillColor=none;gradientColor=default;" vertex="1" parent="1">
                    <mxGeometry x="325" y="920" width="120" height="80" as="geometry"/>
                </mxCell>
                <mxCell id="27" value="Fiche technique, équipement et spécification" style="shape=ext;double=1;rounded=1;whiteSpace=wrap;html=1;shadow=1;strokeColor=default;fontFamily=Verdana;fontSize=13;fontColor=#FFFFFF;fillColor=none;gradientColor=default;" vertex="1" parent="1">
                    <mxGeometry x="160" y="1100" width="120" height="80" as="geometry"/>
                </mxCell>
                <mxCell id="29" value="prix / année / kilométrage" style="shape=ext;double=1;rounded=1;whiteSpace=wrap;html=1;shadow=1;strokeColor=default;fontFamily=Verdana;fontSize=13;fontColor=#FFFFFF;fillColor=none;gradientColor=default;" vertex="1" parent="1">
                    <mxGeometry x="325" y="1100" width="120" height="80" as="geometry"/>
                </mxCell>
                <mxCell id="30" value="Formulaire pour en savoir plus sur le véhicule" style="shape=ext;double=1;rounded=1;whiteSpace=wrap;html=1;shadow=1;strokeColor=default;fontFamily=Verdana;fontSize=13;fontColor=#FFFFFF;fillColor=none;gradientColor=default;" vertex="1" parent="1">
                    <mxGeometry x="490" y="1100" width="120" height="80" as="geometry"/>
                </mxCell>
                <mxCell id="31" value="" style="endArrow=none;html=1;strokeWidth=3;fontFamily=Verdana;fontSize=13;fontColor=#FFFFFF;startArrow=block;startFill=1;entryX=0.75;entryY=1;entryDx=0;entryDy=0;exitX=0.25;exitY=0;exitDx=0;exitDy=0;" edge="1" parent="1" source="30" target="26">
                    <mxGeometry width="50" height="50" relative="1" as="geometry">
                        <mxPoint x="510" y="1050" as="sourcePoint"/>
                        <mxPoint x="585" y="970" as="targetPoint"/>
                        <Array as="points"/>
                    </mxGeometry>
                </mxCell>
                <mxCell id="32" value="" style="endArrow=none;html=1;strokeWidth=3;fontFamily=Verdana;fontSize=13;fontColor=#FFFFFF;startArrow=block;startFill=1;entryX=0.25;entryY=1;entryDx=0;entryDy=0;exitX=0.75;exitY=0;exitDx=0;exitDy=0;" edge="1" parent="1" source="27" target="26">
                    <mxGeometry width="50" height="50" relative="1" as="geometry">
                        <mxPoint x="270" y="1080" as="sourcePoint"/>
                        <mxPoint x="345" y="1000" as="targetPoint"/>
                        <Array as="points"/>
                    </mxGeometry>
                </mxCell>
                <mxCell id="33" value="" style="endArrow=none;html=1;strokeWidth=3;fontFamily=Verdana;fontSize=13;fontColor=#FFFFFF;startArrow=block;startFill=1;entryX=0.5;entryY=1;entryDx=0;entryDy=0;exitX=0.5;exitY=0;exitDx=0;exitDy=0;" edge="1" parent="1" source="29" target="26">
                    <mxGeometry width="50" height="50" relative="1" as="geometry">
                        <mxPoint x="430" y="1070" as="sourcePoint"/>
                        <mxPoint x="505" y="990" as="targetPoint"/>
                        <Array as="points"/>
                    </mxGeometry>
                </mxCell>
                <mxCell id="34" value="" style="group" vertex="1" connectable="0" parent="1">
                    <mxGeometry x="680" y="1100" width="95" height="150" as="geometry"/>
                </mxCell>
                <mxCell id="35" value="" style="group" vertex="1" connectable="0" parent="34">
                    <mxGeometry x="-25" y="10" width="120" height="140" as="geometry"/>
                </mxCell>
                <mxCell id="36" value="" style="ellipse;fillColor=#60a917;fontFamily=Verdana;fontSize=13;fontColor=#ffffff;shadow=1;strokeColor=#2D7600;" vertex="1" parent="35">
                    <mxGeometry x="45" width="30" height="30" as="geometry"/>
                </mxCell>
                <mxCell id="43" value="" style="edgeStyle=none;html=1;" edge="1" parent="35" source="37" target="41">
                    <mxGeometry relative="1" as="geometry"/>
                </mxCell>
                <mxCell id="37" value="" style="html=1;points=[];perimeter=orthogonalPerimeter;fillColor=#60a917;fontFamily=Verdana;fontSize=13;fontColor=#ffffff;strokeColor=#2D7600;" vertex="1" parent="35">
                    <mxGeometry x="57.5" y="30" width="5" height="50" as="geometry"/>
                </mxCell>
                <mxCell id="38" value="" style="html=1;points=[];perimeter=orthogonalPerimeter;fillColor=#60a917;fontFamily=Verdana;fontSize=13;fontColor=#ffffff;rotation=-90;strokeColor=#2D7600;" vertex="1" parent="35">
                    <mxGeometry x="55" y="17.5" width="5" height="65" as="geometry"/>
                </mxCell>
                <mxCell id="39" value="" style="html=1;points=[];perimeter=orthogonalPerimeter;fillColor=#60a917;fontFamily=Verdana;fontSize=13;fontColor=#ffffff;rotation=-45;strokeColor=#2D7600;" vertex="1" parent="35">
                    <mxGeometry x="70" y="70" width="5" height="40" as="geometry"/>
                </mxCell>
                <mxCell id="40" value="" style="html=1;points=[];perimeter=orthogonalPerimeter;fillColor=#60a917;fontFamily=Verdana;fontSize=13;fontColor=#ffffff;rotation=45;strokeColor=#2D7600;" vertex="1" parent="35">
                    <mxGeometry x="44.99990257669734" y="69.99990257669731" width="5" height="40" as="geometry"/>
                </mxCell>
                <mxCell id="41" value="&lt;font color=&quot;#ffffff&quot;&gt;Employé&lt;/font&gt;" style="shape=note2;boundedLbl=1;whiteSpace=wrap;html=1;size=25;verticalAlign=middle;align=center;fontFamily=Verdana;fontSize=13;fontColor=#1A1A1A;fillColor=none;gradientColor=none;shadow=0;strokeColor=none;" vertex="1" parent="35">
                    <mxGeometry y="100" width="120" height="40" as="geometry"/>
                </mxCell>
                <mxCell id="45" value="reception du formulaire" style="shape=ext;double=1;rounded=1;whiteSpace=wrap;html=1;shadow=1;strokeColor=#33FF33;fontFamily=Verdana;fontSize=13;fontColor=#FFFFFF;fillColor=none;gradientColor=default;" vertex="1" parent="1">
                    <mxGeometry x="655" y="1250" width="120" height="80" as="geometry"/>
                </mxCell>
                <mxCell id="46" value="réponse" style="shape=ext;double=1;rounded=1;whiteSpace=wrap;html=1;shadow=1;strokeColor=#33FF33;fontFamily=Verdana;fontSize=13;fontColor=#FFFFFF;fillColor=none;gradientColor=default;" vertex="1" parent="1">
                    <mxGeometry x="655" y="1390" width="120" height="80" as="geometry"/>
                </mxCell>
                <mxCell id="47" value="" style="endArrow=none;html=1;strokeWidth=3;fontFamily=Verdana;fontSize=13;fontColor=#FFFFFF;startArrow=block;startFill=1;entryX=0.5;entryY=1;entryDx=0;entryDy=0;exitX=0.5;exitY=0;exitDx=0;exitDy=0;" edge="1" parent="1" source="46" target="45">
                    <mxGeometry width="50" height="50" relative="1" as="geometry">
                        <mxPoint x="530" y="1370" as="sourcePoint"/>
                        <mxPoint x="425" y="1270" as="targetPoint"/>
                        <Array as="points"/>
                    </mxGeometry>
                </mxCell>
                <mxCell id="48" value="" style="endArrow=none;html=1;strokeWidth=3;fontFamily=Verdana;fontSize=13;fontColor=#FFFFFF;startArrow=block;startFill=1;entryX=0.5;entryY=1;entryDx=0;entryDy=0;exitX=0;exitY=0.5;exitDx=0;exitDy=0;" edge="1" parent="1" source="45" target="30">
                    <mxGeometry width="50" height="50" relative="1" as="geometry">
                        <mxPoint x="520" y="1240" as="sourcePoint"/>
                        <mxPoint x="415" y="1140" as="targetPoint"/>
                        <Array as="points">
                            <mxPoint x="570" y="1280"/>
                        </Array>
                    </mxGeometry>
                </mxCell>
                <mxCell id="49" value="reception de la réponse sur le compte client" style="shape=ext;double=1;rounded=1;whiteSpace=wrap;html=1;shadow=1;strokeColor=default;fontFamily=Verdana;fontSize=13;fontColor=#FFFFFF;fillColor=none;gradientColor=default;" vertex="1" parent="1">
                    <mxGeometry x="490" y="1330" width="120" height="80" as="geometry"/>
                </mxCell>
                <mxCell id="53" value="" style="endArrow=none;html=1;strokeWidth=3;fontFamily=Verdana;fontSize=13;fontColor=#FFFFFF;startArrow=block;startFill=1;entryX=0;entryY=0.25;entryDx=0;entryDy=0;exitX=1;exitY=0.75;exitDx=0;exitDy=0;" edge="1" parent="1" source="49" target="46">
                    <mxGeometry width="50" height="50" relative="1" as="geometry">
                        <mxPoint x="500" y="1350" as="sourcePoint"/>
                        <mxPoint x="395" y="1240" as="targetPoint"/>
                        <Array as="points"/>
                    </mxGeometry>
                </mxCell>
                <mxCell id="54" value="" style="endArrow=none;html=1;strokeWidth=3;fontFamily=Verdana;fontSize=13;fontColor=#FFFFFF;startArrow=block;startFill=1;entryX=0.5;entryY=0;entryDx=0;entryDy=0;exitX=0.25;exitY=1;exitDx=0;exitDy=0;" edge="1" parent="1" source="30" target="49">
                    <mxGeometry width="50" height="50" relative="1" as="geometry">
                        <mxPoint x="500" y="1280" as="sourcePoint"/>
                        <mxPoint x="395" y="1170" as="targetPoint"/>
                        <Array as="points"/>
                    </mxGeometry>
                </mxCell>
            </root>
        </mxGraphModel>
    </diagram>
</mxfile>